<?xml version="1.0" encoding="UTF-8" ?>
<!DOCTYPE svg PUBLIC "-//W3C//DTD SVG 1.1//EN" "http://www.w3.org/Graphics/SVG/1.1/DTD/svg11.dtd">
<svg width="980pt" height="904pt" viewBox="0 0 980 904" version="1.1" xmlns="http://www.w3.org/2000/svg">
<g id="#ffffffff">
<path fill="#ffffff" opacity="1.00" d=" M 383.56 0.00 L 417.00 0.00 L 417.01 0.97 C 405.51 0.61 394.01 0.70 382.51 0.93 L 383.56 0.00 Z" />
<path fill="#ffffff" opacity="1.00" d=" M 362.52 1.10 C 368.02 0.87 373.53 1.07 379.04 1.06 C 373.18 1.39 367.31 1.70 361.45 2.00 L 362.52 1.10 Z" />
<path fill="#ffffff" opacity="1.00" d=" M 420.92 1.06 C 426.10 1.07 431.29 0.86 436.46 1.10 L 437.55 1.92 C 432.00 1.70 426.46 1.38 420.92 1.06 Z" />
<path fill="#ffffff" opacity="1.00" d=" M 350.54 2.10 C 354.03 1.85 357.54 2.10 361.04 2.03 C 357.18 2.43 353.31 2.75 349.44 2.95 L 350.54 2.10 Z" />
<path fill="#ffffff" opacity="1.00" d=" M 439.78 2.09 C 443.00 2.04 446.24 1.87 449.46 2.10 L 450.55 3.00 C 446.95 2.79 443.36 2.48 439.78 2.09 Z" />
<path fill="#ffffff" opacity="1.00" d=" M 340.53 3.10 C 343.10 2.91 345.68 3.03 348.26 3.07 C 345.34 3.47 342.40 3.78 339.45 4.00 L 340.53 3.10 Z" />
<path fill="#ffffff" opacity="1.00" d=" M 450.95 3.04 C 454.18 3.35 457.78 2.12 460.70 3.94 C 457.43 3.85 454.19 3.46 450.95 3.04 Z" />
<path fill="#ffffff" opacity="1.00" d=" M 331.52 4.09 C 334.03 3.92 336.55 4.05 339.07 4.05 C 336.19 4.47 333.30 4.83 330.41 5.06 L 331.52 4.09 Z" />
<path fill="#ffffff" opacity="1.00" d=" M 461.22 4.07 C 463.52 3.90 466.46 2.80 468.25 4.85 C 465.88 5.70 463.45 4.90 461.22 4.07 Z" />
<path fill="#ffffff" opacity="1.00" d=" M 323.86 6.04 C 324.77 3.66 328.01 4.96 329.90 5.13 C 327.98 5.89 325.93 6.46 323.86 6.04 Z" />
<path fill="#ffffff" opacity="1.00" d=" M 469.21 5.05 C 471.52 4.93 474.46 3.80 476.25 5.84 C 473.88 6.74 471.45 5.88 469.21 5.05 Z" />
<path fill="#ffffff" opacity="1.00" d=" M 317.59 6.10 C 319.48 6.00 321.38 5.98 323.28 6.03 C 319.11 6.65 314.99 7.52 310.91 8.51 C 307.06 8.89 303.23 9.33 299.43 10.02 L 300.53 9.17 C 302.23 8.84 304.23 9.37 305.61 8.03 C 307.06 8.14 308.50 8.28 309.95 8.44 C 310.48 7.96 311.00 7.48 311.52 6.99 C 313.56 7.02 315.89 7.61 317.59 6.10 Z" />
<path fill="#ffffff" opacity="1.00" d=" M 476.96 6.06 C 478.59 5.86 481.44 4.87 482.15 7.03 C 480.34 7.43 478.55 6.89 476.96 6.06 Z" />
<path fill="#ffffff" opacity="1.00" d=" M 482.88 7.02 C 484.72 6.99 486.57 7.01 488.42 7.10 C 489.83 8.30 491.76 7.88 493.46 8.18 L 494.56 8.98 C 490.64 8.49 486.77 7.69 482.88 7.02 Z" />
<path fill="#ffffff" opacity="1.00" d=" M 495.10 9.15 C 496.66 8.86 499.57 7.84 500.14 10.06 C 498.38 10.44 496.65 9.93 495.10 9.15 Z" />
<path fill="#ffffff" opacity="1.00" d=" M 294.84 11.02 C 295.22 9.08 297.71 9.72 299.03 10.14 C 297.77 10.88 296.31 11.41 294.84 11.02 Z" />
<path fill="#ffffff" opacity="1.00" d=" M 500.58 10.06 C 501.51 10.07 503.38 10.09 504.31 10.10 C 505.73 11.29 507.50 11.36 509.29 11.16 C 510.55 11.96 512.01 12.17 513.48 12.34 L 514.51 12.93 C 512.27 12.70 510.01 12.66 507.86 11.98 C 505.34 11.72 502.93 10.97 500.58 10.06 Z" />
<path fill="#ffffff" opacity="1.00" d=" M 290.62 11.08 C 291.86 11.04 293.10 11.02 294.35 11.02 C 289.68 11.87 285.29 14.08 280.47 14.01 L 281.53 13.32 C 283.00 13.30 284.45 13.04 285.67 12.15 C 287.36 12.07 289.25 12.39 290.62 11.08 Z" />
<path fill="#ffffff" opacity="1.00" d=" M 514.75 13.01 C 515.64 13.05 517.42 13.14 518.30 13.19 C 519.96 14.10 521.92 14.12 523.64 14.94 C 520.55 14.93 517.52 14.39 514.75 13.01 Z" />
<path fill="#ffffff" opacity="1.00" d=" M 276.84 15.02 C 277.43 13.66 278.50 13.34 280.03 14.07 C 279.13 14.97 278.06 15.29 276.84 15.02 Z" />
<path fill="#ffffff" opacity="1.00" d=" M 272.59 15.07 C 273.85 15.02 275.11 15.00 276.38 15.02 C 272.41 15.89 268.71 17.72 264.64 18.11 L 265.44 17.30 C 266.57 17.16 267.65 16.74 268.66 16.22 C 270.12 16.30 271.43 15.92 272.59 15.07 Z" />
<path fill="#ffffff" opacity="1.00" d=" M 523.88 15.02 C 525.29 14.42 526.42 14.71 527.26 15.88 C 525.95 16.33 524.82 16.05 523.88 15.02 Z" />
<path fill="#ffffff" opacity="1.00" d=" M 527.89 16.04 C 529.40 15.37 530.49 15.67 531.16 16.94 C 529.90 17.30 528.81 17.00 527.89 16.04 Z" />
<path fill="#ffffff" opacity="1.00" d=" M 257.48 19.24 C 258.97 19.31 260.40 18.98 261.70 18.26 C 262.36 18.24 263.68 18.21 264.34 18.20 C 260.98 19.92 257.17 20.27 253.50 20.84 C 254.78 20.21 256.14 19.76 257.48 19.24 Z" />
<path fill="#ffffff" opacity="1.00" d=" M 555.74 23.93 C 556.42 23.99 557.77 24.12 558.45 24.18 C 559.43 24.62 560.43 25.02 561.46 25.36 C 562.46 25.68 563.47 25.99 564.50 26.29 C 566.21 26.97 568.03 27.41 569.66 28.31 L 570.46 28.83 C 565.44 27.58 560.51 25.90 555.74 23.93 Z" />
<path fill="#ffffff" opacity="1.00" d=" M 234.76 26.79 C 235.32 26.58 236.43 26.17 236.99 25.96 C 236.43 26.17 235.32 26.58 234.76 26.79 Z" />
<path fill="#ffffff" opacity="1.00" d=" M 207.86 36.92 C 208.40 35.11 210.68 34.80 212.30 34.93 C 211.41 36.52 209.55 36.97 207.86 36.92 Z" />
<path fill="#ffffff" opacity="1.00" d=" M 285.52 75.66 C 319.03 67.25 353.49 62.78 388.02 61.97 C 447.67 60.51 507.86 69.78 563.57 91.48 C 598.34 105.15 631.37 123.84 659.67 148.35 C 683.70 169.13 704.25 194.34 717.75 223.22 C 727.83 244.72 733.75 268.20 734.65 291.95 C 735.94 331.91 725.93 372.15 706.02 406.83 C 689.17 436.43 665.58 461.90 638.43 482.35 C 604.42 507.87 565.06 525.80 524.11 536.89 C 477.93 549.62 429.69 553.24 381.96 551.48 C 371.63 551.01 361.33 550.00 351.08 548.66 C 339.50 547.89 327.84 546.61 316.29 546.49 C 306.45 554.59 296.68 562.80 286.86 570.93 C 282.39 574.74 277.64 578.24 273.67 582.60 C 261.38 594.47 247.98 605.11 234.52 615.61 C 221.68 625.38 208.62 634.88 194.93 643.43 C 201.84 622.97 208.58 602.37 212.67 581.12 C 213.68 575.78 214.40 570.39 214.60 564.96 C 215.51 552.84 216.42 540.72 217.43 528.60 C 198.45 518.29 178.37 509.84 160.59 497.42 C 142.00 484.67 125.52 468.89 111.80 451.02 C 89.25 421.69 74.11 386.95 66.61 350.79 C 60.13 318.49 58.38 284.41 67.62 252.45 C 78.82 212.35 104.34 177.49 135.50 150.41 C 178.22 113.37 230.99 89.39 285.52 75.66 M 225.55 247.73 C 210.70 249.45 196.47 256.34 186.01 267.03 C 173.76 279.32 166.88 296.68 167.09 314.00 C 167.38 330.76 174.28 347.32 186.07 359.24 C 207.53 381.38 244.31 385.22 270.59 369.64 C 286.71 360.33 298.15 343.69 301.67 325.47 C 306.73 300.89 295.88 274.02 275.36 259.64 C 261.12 249.39 242.84 245.45 225.55 247.73 M 406.53 247.73 C 390.98 249.53 376.17 257.02 365.55 268.53 C 353.70 281.17 347.38 298.74 348.16 316.03 C 348.99 333.17 356.72 349.93 369.42 361.50 C 381.20 372.33 397.03 378.61 413.02 378.90 C 427.51 379.05 442.00 374.25 453.56 365.51 C 466.38 355.96 475.26 341.45 478.40 325.81 C 483.62 301.17 472.80 274.12 452.21 259.68 C 439.12 250.32 422.54 245.84 406.53 247.73 M 576.47 248.69 C 557.46 252.59 540.39 265.24 531.48 282.53 C 525.04 294.82 522.48 309.17 524.66 322.90 C 527.15 339.01 535.72 354.19 548.53 364.34 C 562.24 375.30 580.44 380.69 597.89 378.35 C 611.88 376.55 625.23 370.16 635.40 360.39 C 648.06 348.13 655.51 330.64 655.48 313.01 C 655.47 299.87 651.30 286.81 643.92 275.96 C 629.60 254.46 601.72 243.13 576.47 248.69 Z" />
<path fill="#ffffff" opacity="1.00" d=" M 13.30 220.33 L 13.82 219.55 C 12.90 224.19 10.66 228.45 9.82 233.11 C 8.76 239.05 6.42 244.65 5.03 250.51 C 5.01 249.20 5.02 247.89 5.07 246.59 C 5.91 245.44 6.29 244.13 6.19 242.67 C 6.77 241.49 7.69 240.29 7.15 238.85 C 8.17 236.49 9.10 234.05 9.27 231.46 C 9.79 230.13 10.27 228.78 10.83 227.47 C 10.91 226.98 11.09 226.02 11.18 225.54 C 11.96 223.83 12.44 222.00 13.30 220.33 Z" />
<path fill="#ffffff" opacity="1.00" d=" M 783.21 221.77 C 783.42 222.33 783.84 223.47 784.05 224.03 C 783.84 223.47 783.42 222.33 783.21 221.77 Z" />
<path fill="#ffffff" opacity="1.00" d=" M 784.09 224.80 C 784.33 225.36 784.81 226.47 785.05 227.03 C 784.81 226.47 784.33 225.36 784.09 224.80 Z" />
<path fill="#ffffff" opacity="1.00" d=" M 789.08 241.84 C 790.37 242.53 790.63 243.63 789.85 245.14 C 788.99 244.16 788.73 243.06 789.08 241.84 Z" />
<path fill="#ffffff" opacity="1.00" d=" M 789.98 245.42 L 790.74 246.51 C 791.06 247.88 790.99 249.40 791.90 250.58 C 791.97 252.13 791.99 253.68 791.97 255.24 C 791.26 251.97 790.44 248.73 789.98 245.42 Z" />
<path fill="#ffffff" opacity="1.00" d=" M 4.05 255.10 C 3.76 253.75 3.08 251.21 5.04 250.86 C 5.41 252.35 4.84 253.83 4.05 255.10 Z" />
<path fill="#ffffff" opacity="1.00" d=" M 3.03 260.91 C 2.74 259.18 2.05 256.85 3.89 255.74 C 4.54 257.51 3.98 259.36 3.03 260.91 Z" />
<path fill="#ffffff" opacity="1.00" d=" M 791.96 255.83 C 793.88 256.26 793.26 258.73 792.93 260.10 C 792.12 258.83 791.59 257.34 791.96 255.83 Z" />
<path fill="#ffffff" opacity="1.00" d=" M 793.18 260.75 C 795.02 262.29 794.14 264.87 793.86 266.88 C 792.97 264.97 792.33 262.81 793.18 260.75 Z" />
<path fill="#ffffff" opacity="1.00" d=" M 2.42 266.95 C 2.30 265.08 1.50 263.01 2.84 261.36 C 3.22 266.39 1.67 271.21 1.04 276.15 C 1.07 273.61 1.07 271.08 0.94 268.55 C 1.44 268.02 1.93 267.48 2.42 266.95 Z" />
<path fill="#ffffff" opacity="1.00" d=" M 793.98 267.42 L 794.90 268.54 C 795.03 270.99 794.91 273.45 795.10 275.91 C 794.36 273.14 794.19 270.26 793.98 267.42 Z" />
<path fill="#ffffff" opacity="1.00" d=" M 0.00 277.28 L 0.99 276.71 C 0.67 281.54 0.36 286.37 0.00 291.20 L 0.00 277.28 Z" />
<path fill="#ffffff" opacity="1.00" d=" M 0.97 324.92 C 1.55 328.14 1.76 331.42 1.90 334.69 C 0.14 331.73 1.42 328.15 0.97 324.92 Z" />
<path fill="#ffffff" opacity="1.00" d=" M 794.10 337.55 C 794.27 334.40 794.40 331.21 795.12 328.13 C 794.85 330.90 795.04 333.69 794.91 336.47 L 794.10 337.55 Z" />
<path fill="#ffffff" opacity="1.00" d=" M 2.04 335.25 C 2.80 337.47 3.52 339.80 3.08 342.17 C 0.50 341.01 2.04 337.43 2.04 335.25 Z" />
<path fill="#ffffff" opacity="1.00" d=" M 793.16 345.25 C 792.39 343.13 793.07 340.96 793.87 338.98 C 794.14 341.03 795.08 343.70 793.16 345.25 Z" />
<path fill="#ffffff" opacity="1.00" d=" M 3.01 343.16 C 3.85 345.03 4.52 347.08 4.06 349.17 C 1.69 348.25 2.97 345.05 3.01 343.16 Z" />
<path fill="#ffffff" opacity="1.00" d=" M 791.92 351.17 C 791.53 349.36 792.16 347.59 792.93 345.99 C 793.12 347.62 794.13 350.52 791.92 351.17 Z" />
<path fill="#ffffff" opacity="1.00" d=" M 3.99 350.03 C 4.88 351.58 5.46 353.35 5.03 355.15 C 2.85 354.52 3.89 351.65 3.99 350.03 Z" />
<path fill="#ffffff" opacity="1.00" d=" M 790.96 357.13 C 790.53 355.33 791.10 353.56 792.00 352.01 C 792.07 353.61 793.15 356.55 790.96 357.13 Z" />
<path fill="#ffffff" opacity="1.00" d=" M 5.03 355.77 C 6.56 360.60 7.76 365.57 7.96 370.66 C 6.01 367.45 7.10 363.36 5.08 360.31 C 5.06 358.79 5.05 357.28 5.03 355.77 Z" />
<path fill="#ffffff" opacity="1.00" d=" M 785.93 378.46 C 787.78 371.50 789.31 364.47 790.96 357.46 C 790.97 358.77 790.96 360.09 790.92 361.41 C 789.51 363.18 790.36 365.65 789.26 367.56 C 789.00 368.91 788.85 370.30 788.27 371.57 C 788.01 372.91 787.83 374.29 787.28 375.56 C 787.15 376.04 786.90 377.00 786.78 377.48 L 785.93 378.46 Z" />
<path fill="#ffffff" opacity="1.00" d=" M 865.03 364.00 C 865.05 362.08 863.70 358.90 865.99 357.89 C 866.43 359.99 866.02 362.12 865.03 364.00 Z" />
<path fill="#ffffff" opacity="1.00" d=" M 864.03 370.92 C 864.02 368.99 862.68 365.76 865.08 364.83 C 865.46 366.93 864.92 369.02 864.03 370.92 Z" />
<path fill="#ffffff" opacity="1.00" d=" M 8.02 370.86 C 9.02 371.81 9.31 372.94 8.90 374.25 C 7.70 373.42 7.41 372.29 8.02 370.86 Z" />
<path fill="#ffffff" opacity="1.00" d=" M 862.98 376.12 C 862.75 374.73 862.13 372.21 864.10 371.85 C 864.40 373.37 863.83 374.88 862.98 376.12 Z" />
<path fill="#ffffff" opacity="1.00" d=" M 8.99 374.92 C 10.02 375.85 10.31 376.96 9.86 378.26 C 8.68 377.44 8.39 376.32 8.99 374.92 Z" />
<path fill="#ffffff" opacity="1.00" d=" M 862.00 381.17 C 861.80 379.80 861.11 377.24 863.06 376.88 C 863.43 378.40 862.83 379.92 862.00 381.17 Z" />
<path fill="#ffffff" opacity="1.00" d=" M 10.02 378.96 C 10.97 379.84 11.31 380.91 11.06 382.16 C 9.70 381.58 9.36 380.52 10.02 378.96 Z" />
<path fill="#ffffff" opacity="1.00" d=" M 783.14 388.57 C 783.83 385.20 784.12 381.64 785.87 378.60 C 785.83 379.27 785.77 380.62 785.74 381.29 C 785.34 382.33 784.93 383.37 784.65 384.45 C 784.18 385.83 783.75 387.24 783.14 388.57 Z" />
<path fill="#ffffff" opacity="1.00" d=" M 861.06 386.07 C 860.77 384.72 860.08 382.16 862.07 381.86 C 862.46 383.34 861.81 384.82 861.06 386.07 Z" />
<path fill="#ffffff" opacity="1.00" d=" M 10.98 382.92 C 12.63 384.53 13.04 386.93 12.94 389.15 C 11.12 387.81 10.62 385.06 10.98 382.92 Z" />
<path fill="#ffffff" opacity="1.00" d=" M 859.29 391.70 C 860.01 389.96 860.17 388.05 860.97 386.35 C 860.86 389.74 860.03 393.01 859.31 396.31 C 858.92 396.78 858.14 397.74 857.75 398.22 C 858.10 396.00 859.23 393.97 859.29 391.70 Z" />
<path fill="#ffffff" opacity="1.00" d=" M 782.11 391.23 C 782.33 390.67 782.79 389.54 783.01 388.98 C 782.79 389.54 782.33 390.67 782.11 391.23 Z" />
<path fill="#ffffff" opacity="1.00" d=" M 781.19 394.24 C 781.41 393.68 781.84 392.55 782.05 391.99 C 781.84 392.55 781.41 393.68 781.19 394.24 Z" />
<path fill="#ffffff" opacity="1.00" d=" M 848.35 425.34 L 848.79 424.55 C 848.33 427.07 847.25 429.41 845.82 431.52 C 846.03 430.79 846.44 429.34 846.64 428.62 C 847.19 427.51 847.76 426.42 848.35 425.34 Z" />
<path fill="#ffffff" opacity="1.00" d=" M 967.19 464.55 L 967.70 465.33 C 968.42 466.63 968.90 468.06 969.30 469.50 C 969.65 470.49 970.00 471.48 970.35 472.49 C 970.86 476.27 972.77 479.67 973.26 483.45 C 974.19 484.91 973.91 486.66 974.05 488.30 C 972.80 484.97 972.60 481.25 970.74 478.17 C 970.27 473.45 968.15 469.15 967.19 464.55 Z" />
<path fill="#ffffff" opacity="1.00" d=" M 974.07 488.38 C 974.76 490.11 974.95 492.02 975.80 493.71 C 975.93 495.36 975.65 497.23 976.91 498.58 C 976.99 500.44 977.00 502.31 976.98 504.19 C 976.45 498.82 974.08 493.81 974.07 488.38 Z" />
<path fill="#ffffff" opacity="1.00" d=" M 976.97 504.85 C 979.22 505.81 978.16 508.90 977.96 510.78 C 977.02 508.95 976.57 506.88 976.97 504.85 Z" />
<path fill="#ffffff" opacity="1.00" d=" M 979.00 569.30 C 979.39 564.13 979.64 558.96 980.00 553.79 L 980.00 568.70 L 979.00 569.30 Z" />
<path fill="#ffffff" opacity="1.00" d=" M 977.94 579.61 C 978.19 576.36 978.56 573.13 978.94 569.90 C 978.94 572.76 979.10 575.62 978.90 578.47 L 977.94 579.61 Z" />
<path fill="#ffffff" opacity="1.00" d=" M 155.09 571.51 L 155.95 570.46 C 156.11 577.59 155.01 584.58 153.10 591.44 C 153.07 590.15 153.06 588.87 153.07 587.59 C 154.58 585.93 153.95 583.61 154.01 581.61 C 154.45 581.00 154.88 580.41 155.32 579.81 C 155.03 577.05 154.83 574.27 155.09 571.51 Z" />
<path fill="#ffffff" opacity="1.00" d=" M 977.18 586.25 C 976.36 584.16 977.00 581.99 977.86 580.06 C 978.14 582.08 979.04 584.69 977.18 586.25 Z" />
<path fill="#ffffff" opacity="1.00" d=" M 574.96 584.93 C 575.53 584.75 576.68 584.39 577.26 584.21 C 576.68 584.39 575.53 584.75 574.96 584.93 Z" />
<path fill="#ffffff" opacity="1.00" d=" M 562.50 589.02 C 566.48 587.58 570.44 586.08 574.56 585.07 C 574.03 585.38 572.97 586.02 572.44 586.33 C 571.13 586.80 569.80 587.21 568.49 587.66 C 567.43 587.96 566.41 588.36 565.44 588.86 C 564.70 588.90 563.24 588.98 562.50 589.02 Z" />
<path fill="#ffffff" opacity="1.00" d=" M 975.97 591.13 C 975.62 589.61 976.12 588.10 976.93 586.83 C 977.22 588.18 977.91 590.71 975.97 591.13 Z" />
<path fill="#ffffff" opacity="1.00" d=" M 559.97 589.95 C 560.53 589.73 561.65 589.28 562.21 589.05 C 561.65 589.28 560.53 589.73 559.97 589.95 Z" />
<path fill="#ffffff" opacity="1.00" d=" M 545.74 593.93 C 549.98 591.81 554.75 590.66 559.44 590.03 L 558.64 590.70 C 556.42 591.21 554.24 591.93 552.15 592.83 C 550.70 592.44 549.53 593.26 548.28 593.74 C 547.65 593.79 546.38 593.88 545.74 593.93 Z" />
<path fill="#ffffff" opacity="1.00" d=" M 152.31 592.50 L 153.07 591.59 C 152.92 594.29 152.59 597.04 151.17 599.41 C 151.19 598.74 151.23 597.38 151.25 596.71 C 151.93 595.39 152.21 593.95 152.31 592.50 Z" />
<path fill="#ffffff" opacity="1.00" d=" M 973.98 601.57 C 974.43 598.25 975.26 595.00 975.98 591.73 C 975.99 593.28 975.97 594.85 975.90 596.42 C 974.99 597.59 975.05 599.11 974.74 600.49 L 973.98 601.57 Z" />
<path fill="#ffffff" opacity="1.00" d=" M 521.45 599.97 C 529.36 597.65 537.30 595.44 545.45 594.07 L 544.48 594.63 C 543.48 595.00 542.48 595.37 541.49 595.73 C 540.00 595.71 538.59 596.02 537.32 596.78 C 535.76 596.20 534.57 597.20 533.31 597.81 C 531.75 597.16 530.57 598.20 529.32 598.82 C 527.86 598.69 526.55 599.06 525.41 599.93 C 524.08 599.97 522.77 599.98 521.45 599.97 Z" />
<path fill="#ffffff" opacity="1.00" d=" M 150.39 600.52 L 151.12 599.54 C 149.90 603.87 148.90 608.34 146.83 612.38 C 146.97 611.04 147.24 609.73 147.62 608.45 C 148.00 607.44 148.40 606.44 148.81 605.45 C 148.90 604.97 149.09 604.02 149.19 603.54 C 149.59 602.53 149.99 601.52 150.39 600.52 Z" />
<path fill="#ffffff" opacity="1.00" d=" M 517.02 600.92 C 518.22 600.11 519.68 599.57 521.16 599.97 C 520.81 601.91 518.32 601.27 517.02 600.92 Z" />
<path fill="#ffffff" opacity="1.00" d=" M 506.78 602.98 C 510.05 602.27 513.30 601.40 516.64 601.06 C 514.99 601.95 513.06 602.00 511.41 602.89 C 509.86 602.97 508.32 602.99 506.78 602.98 Z" />
<path fill="#ffffff" opacity="1.00" d=" M 973.08 605.16 C 972.71 603.93 972.97 602.84 973.87 601.89 C 974.62 603.39 974.36 604.48 973.08 605.16 Z" />
<path fill="#ffffff" opacity="1.00" d=" M 501.86 603.87 C 503.13 603.09 504.63 602.63 506.13 602.98 C 505.73 604.92 503.19 604.22 501.86 603.87 Z" />
<path fill="#ffffff" opacity="1.00" d=" M 488.80 605.97 C 493.10 605.22 497.39 604.40 501.73 603.92 C 499.69 605.95 496.50 604.07 494.41 605.91 C 492.54 605.99 490.67 606.01 488.80 605.97 Z" />
<path fill="#ffffff" opacity="1.00" d=" M 482.15 606.94 C 484.05 606.16 486.09 605.49 488.17 605.96 C 487.24 608.33 484.05 607.05 482.15 606.94 Z" />
<path fill="#ffffff" opacity="1.00" d=" M 971.67 607.85 C 972.01 607.28 972.70 606.14 973.04 605.57 C 972.97 606.22 972.83 607.53 972.76 608.18 C 971.48 613.75 969.17 619.01 967.75 624.53 C 967.48 625.05 966.94 626.10 966.67 626.62 L 966.22 627.43 C 966.77 624.84 967.29 622.24 968.15 619.74 C 968.48 618.70 968.85 617.68 969.25 616.67 C 969.39 616.18 969.68 615.19 969.82 614.69 C 971.10 612.63 971.37 610.20 971.67 607.85 Z" />
<path fill="#ffffff" opacity="1.00" d=" M 475.10 607.90 C 477.02 607.04 479.16 606.38 481.25 607.15 C 479.75 609.07 477.12 608.18 475.10 607.90 Z" />
<path fill="#ffffff" opacity="1.00" d=" M 465.84 608.93 C 468.78 608.51 471.73 608.12 474.71 608.01 C 472.13 609.88 468.77 608.68 465.84 608.93 Z" />
<path fill="#ffffff" opacity="1.00" d=" M 454.96 609.97 C 458.48 609.55 462.01 609.21 465.55 608.96 L 464.49 609.91 C 461.31 610.11 458.14 609.91 454.96 609.97 Z" />
<path fill="#ffffff" opacity="1.00" d=" M 347.83 609.98 C 350.20 609.45 352.55 610.16 354.78 610.94 C 352.58 610.95 349.09 612.45 347.83 609.98 Z" />
<path fill="#ffffff" opacity="1.00" d=" M 441.90 611.03 C 446.08 610.37 450.33 610.36 454.55 610.01 L 453.47 610.90 C 449.61 611.18 445.75 610.80 441.90 611.03 Z" />
<path fill="#ffffff" opacity="1.00" d=" M 355.29 611.06 C 359.89 611.18 364.48 611.70 369.08 611.97 C 364.52 611.44 359.52 613.13 355.29 611.06 Z" />
<path fill="#ffffff" opacity="1.00" d=" M 370.43 612.05 C 381.81 612.47 393.19 612.07 404.57 612.05 C 404.17 612.27 403.35 612.72 402.95 612.94 C 392.48 613.02 382.00 613.08 371.53 612.90 L 370.43 612.05 Z" />
<path fill="#ffffff" opacity="1.00" d=" M 625.89 637.02 C 626.25 635.13 628.61 634.77 630.21 634.97 C 629.28 636.43 627.56 637.05 625.89 637.02 Z" />
<path fill="#ffffff" opacity="1.00" d=" M 623.63 637.23 C 624.12 637.19 625.09 637.10 625.58 637.05 C 623.46 637.96 621.32 638.80 619.16 639.58 L 619.53 640.66 C 618.99 640.62 617.92 640.54 617.38 640.50 C 614.95 641.86 612.15 642.21 609.50 642.86 C 610.45 642.30 611.42 641.77 612.41 641.26 C 614.88 640.71 617.32 639.95 619.56 638.74 C 620.88 638.16 622.25 637.69 623.63 637.23 Z" />
<path fill="#ffffff" opacity="1.00" d=" M 606.76 643.80 C 607.33 643.62 608.47 643.24 609.03 643.05 C 608.47 643.24 607.33 643.62 606.76 643.80 Z" />
<path fill="#ffffff" opacity="1.00" d=" M 587.50 649.67 C 588.73 649.21 590.00 648.94 591.33 648.87 C 588.70 650.22 585.72 650.71 583.20 652.26 C 580.81 652.72 578.26 652.78 576.21 654.25 C 573.26 654.78 570.33 655.35 567.39 655.92 C 568.40 655.44 569.42 655.00 570.48 654.62 C 576.24 653.28 581.91 651.63 587.50 649.67 Z" />
<path fill="#ffffff" opacity="1.00" d=" M 563.77 656.90 C 564.56 655.69 565.67 655.40 567.12 656.03 C 566.16 657.02 565.05 657.31 563.77 656.90 Z" />
<path fill="#ffffff" opacity="1.00" d=" M 559.87 658.04 C 560.43 656.69 561.52 656.34 563.11 657.01 C 562.20 657.93 561.12 658.27 559.87 658.04 Z" />
<path fill="#ffffff" opacity="1.00" d=" M 552.53 659.33 C 554.00 659.26 555.45 658.93 556.75 658.20 C 557.43 658.16 558.78 658.10 559.46 658.06 C 557.07 659.60 554.24 659.93 551.46 660.00 L 552.53 659.33 Z" />
<path fill="#ffffff" opacity="1.00" d=" M 547.84 661.02 C 548.45 659.65 549.52 659.33 551.07 660.06 C 550.14 660.95 549.06 661.27 547.84 661.02 Z" />
<path fill="#ffffff" opacity="1.00" d=" M 543.60 661.08 C 544.83 661.03 546.07 661.01 547.31 661.02 C 542.65 661.99 538.21 664.05 533.36 663.93 C 535.09 663.19 537.02 663.07 538.70 662.19 C 540.37 662.05 542.24 662.33 543.60 661.08 Z" />
<path fill="#ffffff" opacity="1.00" d=" M 528.85 665.04 C 529.16 663.08 531.66 663.73 532.99 664.04 C 531.79 664.89 530.32 665.38 528.85 665.04 Z" />
<path fill="#ffffff" opacity="1.00" d=" M 521.83 666.29 C 522.42 665.86 523.01 665.43 523.61 665.00 C 525.15 665.02 526.69 665.03 528.25 665.04 C 524.71 666.23 521.07 667.02 517.33 666.93 C 518.69 666.02 520.19 665.81 521.83 666.29 Z" />
<path fill="#ffffff" opacity="1.00" d=" M 511.75 667.86 C 512.95 666.08 515.24 666.76 516.99 667.07 C 515.42 668.05 513.53 668.52 511.75 667.86 Z" />
<path fill="#ffffff" opacity="1.00" d=" M 505.76 668.87 C 506.96 667.07 509.27 667.74 511.03 668.09 C 509.42 668.98 507.55 669.53 505.76 668.87 Z" />
<path fill="#ffffff" opacity="1.00" d=" M 499.85 670.06 C 500.46 667.83 503.38 668.85 505.01 669.07 C 503.41 669.86 501.64 670.40 499.85 670.06 Z" />
<path fill="#ffffff" opacity="1.00" d=" M 492.75 670.87 C 494.01 669.10 496.31 669.77 498.11 670.02 C 496.50 670.99 494.58 671.52 492.75 670.87 Z" />
<path fill="#ffffff" opacity="1.00" d=" M 484.75 671.85 C 486.53 669.79 489.49 670.92 491.81 671.06 C 489.56 671.91 487.12 672.70 484.75 671.85 Z" />
<path fill="#ffffff" opacity="1.00" d=" M 476.85 673.04 C 478.03 670.51 481.61 672.08 483.79 672.06 C 481.56 672.85 479.22 673.52 476.85 673.04 Z" />
<path fill="#ffffff" opacity="1.00" d=" M 467.52 673.10 C 470.40 672.91 473.29 673.00 476.18 673.04 C 472.94 673.43 469.70 673.83 466.44 673.99 L 467.52 673.10 Z" />
<path fill="#ffffff" opacity="1.00" d=" M 457.53 674.10 C 460.17 673.90 462.82 674.01 465.46 674.09 C 462.48 674.54 459.47 674.84 456.46 675.01 L 457.53 674.10 Z" />
<path fill="#ffffff" opacity="1.00" d=" M 444.54 675.10 C 448.39 674.84 452.26 675.10 456.13 675.03 C 451.91 675.48 447.68 675.80 443.44 675.97 L 444.54 675.10 Z" />
<path fill="#ffffff" opacity="1.00" d=" M 348.59 676.16 C 353.87 675.99 359.17 675.85 364.45 676.11 L 365.55 676.93 C 360.22 676.86 354.91 676.39 349.58 676.41 C 351.14 678.36 352.85 680.22 354.21 682.34 C 351.96 680.68 349.77 678.75 348.59 676.16 Z" />
<path fill="#ffffff" opacity="1.00" d=" M 425.44 676.94 C 425.85 676.72 426.68 676.27 427.09 676.05 C 432.12 675.86 437.16 676.09 442.20 676.05 C 436.62 676.49 431.03 676.79 425.44 676.94 Z" />
<path fill="#ffffff" opacity="1.00" d=" M 153.81 724.68 C 155.32 724.42 156.85 724.28 158.38 724.14 L 157.59 724.77 C 154.11 725.59 150.78 726.91 147.28 727.65 C 146.64 727.76 145.35 727.96 144.71 728.07 C 145.21 727.72 146.22 727.03 146.72 726.68 C 149.14 726.29 151.82 726.34 153.81 724.68 Z" />
<path fill="#ffffff" opacity="1.00" d=" M 140.84 728.98 C 141.81 727.95 142.95 727.68 144.25 728.16 C 143.38 729.30 142.24 729.57 140.84 728.98 Z" />
<path fill="#ffffff" opacity="1.00" d=" M 136.04 729.83 C 137.21 728.85 138.81 728.63 140.25 729.12 C 139.38 730.59 137.40 730.55 136.04 729.83 Z" />
<path fill="#ffffff" opacity="1.00" d=" M 847.05 760.44 C 849.00 763.26 847.61 767.03 847.96 770.26 C 847.48 767.00 847.04 763.73 847.05 760.44 Z" />
<path fill="#ffffff" opacity="1.00" d=" M 847.95 770.87 C 850.31 771.81 848.97 775.01 848.91 776.92 C 847.95 775.04 847.60 772.93 847.95 770.87 Z" />
<path fill="#ffffff" opacity="1.00" d=" M 849.05 777.32 C 850.52 778.87 849.78 780.95 849.70 782.82 C 850.11 783.40 850.53 784.00 850.96 784.60 C 850.60 786.39 850.65 788.23 851.88 789.70 C 852.00 791.35 851.59 793.28 852.95 794.60 C 852.89 795.40 852.75 797.00 852.68 797.81 C 853.07 798.38 853.47 798.97 853.89 799.56 C 853.68 801.05 854.02 802.40 854.92 803.60 C 854.96 804.85 854.99 806.11 855.00 807.39 C 854.33 804.79 853.48 802.24 852.66 799.70 C 851.86 792.16 848.81 785.00 849.05 777.32 Z" />
<path fill="#ffffff" opacity="1.00" d=" M 512.52 781.20 C 515.43 781.64 518.30 782.31 521.22 782.68 C 521.73 783.02 522.75 783.68 523.26 784.02 C 522.63 783.95 521.38 783.81 520.75 783.74 C 519.40 783.13 517.95 782.80 516.49 782.73 C 515.15 782.23 513.80 781.79 512.52 781.20 Z" />
<path fill="#ffffff" opacity="1.00" d=" M 523.85 784.07 C 525.09 783.74 526.16 784.05 527.08 785.01 C 525.55 785.67 524.47 785.36 523.85 784.07 Z" />
<path fill="#ffffff" opacity="1.00" d=" M 527.74 785.09 C 529.04 784.65 530.17 784.96 531.11 786.00 C 529.67 786.57 528.55 786.27 527.74 785.09 Z" />
<path fill="#ffffff" opacity="1.00" d=" M 531.76 786.06 C 533.08 785.65 534.20 785.99 535.10 787.08 C 533.65 787.59 532.53 787.25 531.76 786.06 Z" />
<path fill="#ffffff" opacity="1.00" d=" M 535.85 786.96 C 537.33 786.47 538.81 787.18 540.07 787.92 C 538.73 788.21 536.22 788.89 535.85 786.96 Z" />
<path fill="#ffffff" opacity="1.00" d=" M 540.73 788.08 C 542.23 787.51 543.80 788.07 545.07 788.95 C 543.61 789.38 541.58 789.70 540.73 788.08 Z" />
<path fill="#ffffff" opacity="1.00" d=" M 545.73 789.10 C 547.22 788.50 548.80 789.06 550.07 789.94 C 548.60 790.38 546.60 790.69 545.73 789.10 Z" />
<path fill="#ffffff" opacity="1.00" d=" M 550.73 790.12 C 552.22 789.52 553.83 790.01 555.11 790.89 C 553.65 791.36 551.65 791.69 550.73 790.12 Z" />
<path fill="#ffffff" opacity="1.00" d=" M 555.42 791.02 C 559.80 790.97 564.06 791.86 568.26 793.00 C 566.37 792.97 564.49 792.94 562.61 793.00 C 562.01 792.55 561.41 792.12 560.81 791.70 C 559.38 791.83 557.96 791.92 556.54 791.97 L 555.42 791.02 Z" />
<path fill="#ffffff" opacity="1.00" d=" M 568.87 793.01 C 570.94 792.50 573.03 793.00 574.95 793.84 C 573.04 794.00 569.93 795.27 568.87 793.01 Z" />
<path fill="#ffffff" opacity="1.00" d=" M 576.44 794.10 C 579.31 794.24 582.18 794.57 585.04 794.98 C 582.54 794.94 580.04 795.06 577.55 794.90 L 576.44 794.10 Z" />
<path fill="#ffffff" opacity="1.00" d=" M 585.45 795.03 C 588.45 795.25 591.44 795.53 594.43 795.91 C 591.80 795.97 589.17 796.09 586.55 795.89 L 585.45 795.03 Z" />
<path fill="#ffffff" opacity="1.00" d=" M 596.44 796.09 C 601.00 796.27 605.56 796.57 610.11 796.94 C 605.92 796.92 601.72 797.15 597.54 796.89 L 596.44 796.09 Z" />
<path fill="#ffffff" opacity="1.00" d=" M 673.89 796.96 C 677.10 796.59 680.31 796.24 683.55 796.10 L 682.47 796.90 C 679.60 797.08 676.74 796.94 673.89 796.96 Z" />
<path fill="#ffffff" opacity="1.00" d=" M 612.44 797.06 C 632.80 797.49 653.20 798.03 673.55 796.99 L 672.49 797.90 C 652.85 798.04 633.18 798.06 613.54 797.89 L 612.44 797.06 Z" />
<path fill="#ffffff" opacity="1.00" d=" M 855.00 807.86 C 856.32 808.45 856.65 809.53 855.97 811.08 C 855.03 810.16 854.71 809.09 855.00 807.86 Z" />
<path fill="#ffffff" opacity="1.00" d=" M 856.08 811.39 C 856.54 812.39 856.97 813.42 857.36 814.47 C 857.78 816.24 858.14 818.04 858.69 819.79 C 858.77 820.40 858.92 821.64 859.00 822.25 C 858.67 821.75 858.01 820.75 857.68 820.24 C 857.29 817.26 856.64 814.33 856.08 811.39 Z" />
<path fill="#ffffff" opacity="1.00" d=" M 859.07 822.60 L 859.71 823.42 C 860.49 827.53 862.96 831.21 863.04 835.47 C 862.04 833.08 861.04 830.70 860.07 828.31 C 859.50 826.45 859.30 824.50 859.07 822.60 Z" />
<path fill="#ffffff" opacity="1.00" d=" M 863.09 835.80 C 864.73 836.97 865.04 839.20 865.00 841.10 C 863.30 839.93 862.56 837.76 863.09 835.80 Z" />
<path fill="#ffffff" opacity="1.00" d=" M 865.06 841.77 C 865.30 842.33 865.77 843.45 866.00 844.00 C 865.77 843.45 865.30 842.33 865.06 841.77 Z" />
</g>
<g id="#000000ff">
<path fill="#000000" opacity="1.00" d=" M 379.04 1.06 C 380.19 1.03 381.35 0.99 382.51 0.93 C 394.01 0.70 405.51 0.61 417.01 0.97 C 418.31 1.00 419.61 1.03 420.92 1.06 C 426.46 1.38 432.00 1.70 437.55 1.92 C 438.11 1.96 439.22 2.05 439.78 2.09 C 443.36 2.48 446.95 2.79 450.55 3.00 L 450.95 3.04 C 454.19 3.46 457.43 3.85 460.70 3.94 L 461.22 4.07 C 463.45 4.90 465.88 5.70 468.25 4.85 L 469.21 5.05 C 471.45 5.88 473.88 6.74 476.25 5.84 L 476.96 6.06 C 478.55 6.89 480.34 7.43 482.15 7.03 L 482.88 7.02 C 486.77 7.69 490.64 8.49 494.56 8.98 L 495.10 9.15 C 496.65 9.93 498.38 10.44 500.14 10.06 L 500.58 10.06 C 502.93 10.97 505.34 11.72 507.86 11.98 C 510.01 12.66 512.27 12.70 514.51 12.93 L 514.75 13.01 C 517.52 14.39 520.55 14.93 523.64 14.94 L 523.88 15.02 C 524.82 16.05 525.95 16.33 527.26 15.88 L 527.89 16.04 C 528.81 17.00 529.90 17.30 531.16 16.94 C 535.32 17.04 539.18 18.75 543.16 19.78 C 547.44 20.85 551.64 22.28 555.74 23.93 C 560.51 25.90 565.44 27.58 570.46 28.83 C 571.68 29.16 572.90 29.49 574.13 29.86 C 619.18 46.07 661.75 69.69 698.26 100.77 C 708.50 109.11 717.23 119.12 726.78 128.24 C 729.96 131.07 732.04 134.87 735.19 137.75 C 749.93 155.64 763.07 175.01 773.01 196.00 C 776.87 204.37 780.91 212.80 783.21 221.77 C 783.42 222.33 783.84 223.47 784.05 224.03 L 784.09 224.80 C 784.33 225.36 784.81 226.47 785.05 227.03 C 786.86 231.80 788.70 236.70 789.08 241.84 C 788.73 243.06 788.99 244.16 789.85 245.14 L 789.98 245.42 C 790.44 248.73 791.26 251.97 791.97 255.24 L 791.96 255.83 C 791.59 257.34 792.12 258.83 792.93 260.10 L 793.18 260.75 C 792.33 262.81 792.97 264.97 793.86 266.88 L 793.98 267.42 C 794.19 270.26 794.36 273.14 795.10 275.91 C 796.53 279.78 795.91 283.94 795.99 287.98 C 796.02 299.63 795.96 311.30 796.04 322.96 C 796.09 324.73 795.55 326.43 795.12 328.13 C 794.40 331.21 794.27 334.40 794.10 337.55 C 794.05 337.91 793.93 338.62 793.87 338.98 C 793.07 340.96 792.39 343.13 793.16 345.25 L 792.93 345.99 C 792.16 347.59 791.53 349.36 791.92 351.17 L 792.00 352.01 C 791.10 353.56 790.53 355.33 790.96 357.13 L 790.96 357.46 C 789.31 364.47 787.78 371.50 785.93 378.46 L 785.87 378.60 C 784.12 381.64 783.83 385.20 783.14 388.57 L 783.01 388.98 C 782.79 389.54 782.33 390.67 782.11 391.23 L 782.05 391.99 C 781.84 392.55 781.41 393.68 781.19 394.24 C 779.34 401.78 776.06 408.89 773.03 416.00 C 769.90 421.13 768.61 427.14 765.06 432.02 C 757.37 447.38 747.52 461.54 737.12 475.17 C 731.54 481.29 726.88 488.21 720.71 493.78 C 712.88 501.27 705.80 509.59 697.25 516.28 C 667.88 542.00 633.57 561.56 597.72 576.72 C 590.91 579.25 584.36 582.55 577.26 584.21 C 576.68 584.39 575.53 584.75 574.96 584.93 L 574.56 585.07 C 570.44 586.08 566.48 587.58 562.50 589.02 L 562.21 589.05 C 561.65 589.28 560.53 589.73 559.97 589.95 L 559.44 590.03 C 554.75 590.66 549.98 591.81 545.74 593.93 L 545.45 594.07 C 537.30 595.44 529.36 597.65 521.45 599.97 L 521.16 599.97 C 519.68 599.57 518.22 600.11 517.02 600.92 L 516.64 601.06 C 513.30 601.40 510.05 602.27 506.78 602.98 L 506.13 602.98 C 504.63 602.63 503.13 603.09 501.86 603.87 L 501.73 603.92 C 497.39 604.40 493.10 605.22 488.80 605.97 L 488.17 605.96 C 486.09 605.49 484.05 606.16 482.15 606.94 L 481.25 607.15 C 479.16 606.38 477.02 607.04 475.10 607.90 L 474.71 608.01 C 471.73 608.12 468.78 608.51 465.84 608.93 L 465.55 608.96 C 462.01 609.21 458.48 609.55 454.96 609.97 L 454.55 610.01 C 450.33 610.36 446.08 610.37 441.90 611.03 C 439.94 611.44 438.02 612.11 436.00 612.03 C 425.52 612.00 415.05 611.95 404.57 612.05 C 393.19 612.07 381.81 612.47 370.43 612.05 C 370.09 612.03 369.42 611.99 369.08 611.97 C 364.48 611.70 359.89 611.18 355.29 611.06 L 354.78 610.94 C 352.55 610.16 350.20 609.45 347.83 609.98 C 345.72 610.05 343.61 610.01 341.51 610.03 C 339.18 615.08 333.68 617.16 330.25 621.26 C 327.90 623.93 324.74 625.70 322.22 628.19 C 299.64 646.66 275.77 663.53 251.00 678.92 C 230.83 691.21 210.37 703.21 188.68 712.65 C 178.72 716.81 168.88 721.48 158.38 724.14 C 156.85 724.28 155.32 724.42 153.81 724.68 C 151.82 726.34 149.14 726.29 146.72 726.68 C 146.22 727.03 145.21 727.72 144.71 728.07 L 144.25 728.16 C 142.95 727.68 141.81 727.95 140.84 728.98 L 140.25 729.12 C 138.81 728.63 137.21 728.85 136.04 729.83 C 135.57 730.14 134.63 730.74 134.15 731.05 C 129.14 730.83 124.12 731.27 119.12 730.84 C 111.11 729.05 104.45 722.50 102.31 714.61 C 101.72 711.11 101.94 707.53 102.06 704.01 C 102.41 699.32 105.79 695.78 107.71 691.70 C 118.48 673.13 129.17 654.44 137.65 634.69 C 141.31 627.51 143.50 619.70 146.83 612.38 C 148.90 608.34 149.90 603.87 151.12 599.54 L 151.17 599.41 C 152.59 597.04 152.92 594.29 153.07 591.59 L 153.10 591.44 C 155.01 584.58 156.11 577.59 155.95 570.46 C 156.00 569.09 156.01 567.74 156.02 566.39 C 134.84 555.42 114.60 542.19 97.15 525.86 C 91.37 521.71 86.94 516.05 81.73 511.26 C 78.28 508.34 76.17 504.22 72.76 501.27 C 46.50 471.00 27.17 435.08 14.84 397.03 C 13.98 394.47 12.80 391.91 12.94 389.15 C 13.04 386.93 12.63 384.53 10.98 382.92 L 11.06 382.16 C 11.31 380.91 10.97 379.84 10.02 378.96 L 9.86 378.26 C 10.31 376.96 10.02 375.85 8.99 374.92 L 8.90 374.25 C 9.31 372.94 9.02 371.81 8.02 370.86 L 7.96 370.66 C 7.76 365.57 6.56 360.60 5.03 355.77 L 5.03 355.15 C 5.46 353.35 4.88 351.58 3.99 350.03 L 4.06 349.17 C 4.52 347.08 3.85 345.03 3.01 343.16 L 3.08 342.17 C 3.52 339.80 2.80 337.47 2.04 335.25 L 1.90 334.69 C 1.76 331.42 1.55 328.14 0.97 324.92 C 0.72 324.51 0.24 323.68 0.00 323.27 L 0.00 291.20 C 0.36 286.37 0.67 281.54 0.99 276.71 L 1.04 276.15 C 1.67 271.21 3.22 266.39 2.84 261.36 L 3.03 260.91 C 3.98 259.36 4.54 257.51 3.89 255.74 L 4.05 255.10 C 4.84 253.83 5.41 252.35 5.04 250.86 L 5.03 250.51 C 6.42 244.65 8.76 239.05 9.82 233.11 C 10.66 228.45 12.90 224.19 13.82 219.55 C 15.24 213.58 18.19 208.14 20.41 202.46 C 31.38 178.19 46.27 155.77 63.76 135.72 C 66.70 133.28 68.50 129.84 71.23 127.22 C 76.10 122.43 80.94 117.60 85.73 112.72 C 88.46 109.73 92.16 107.84 94.77 104.71 C 115.87 86.55 138.90 70.60 163.36 57.29 C 174.16 52.17 184.58 46.19 195.65 41.66 C 199.59 39.82 203.53 37.64 207.86 36.92 C 209.55 36.97 211.41 36.52 212.30 34.93 C 219.44 31.39 227.11 28.97 234.76 26.79 C 235.32 26.58 236.43 26.17 236.99 25.96 C 242.44 24.11 247.79 21.73 253.50 20.84 C 257.17 20.27 260.98 19.92 264.34 18.20 L 264.64 18.11 C 268.71 17.72 272.41 15.89 276.38 15.02 L 276.84 15.02 C 278.06 15.29 279.13 14.97 280.03 14.07 L 280.47 14.01 C 285.29 14.08 289.68 11.87 294.35 11.02 L 294.84 11.02 C 296.31 11.41 297.77 10.88 299.03 10.14 L 299.43 10.02 C 303.23 9.33 307.06 8.89 310.91 8.51 C 314.99 7.52 319.11 6.65 323.28 6.03 L 323.86 6.04 C 325.93 6.46 327.98 5.89 329.90 5.13 L 330.41 5.06 C 333.30 4.83 336.19 4.47 339.07 4.05 L 339.45 4.00 C 342.40 3.78 345.34 3.47 348.26 3.07 C 348.56 3.04 349.15 2.98 349.44 2.95 C 353.31 2.75 357.18 2.43 361.04 2.03 L 361.45 2.00 C 367.31 1.70 373.18 1.39 379.04 1.06 M 285.52 75.66 C 230.99 89.39 178.22 113.37 135.50 150.41 C 104.34 177.49 78.82 212.35 67.62 252.45 C 58.38 284.41 60.13 318.49 66.61 350.79 C 74.11 386.95 89.25 421.69 111.80 451.02 C 125.52 468.89 142.00 484.67 160.59 497.42 C 178.37 509.84 198.45 518.29 217.43 528.60 C 216.42 540.72 215.51 552.84 214.60 564.96 C 214.40 570.39 213.68 575.78 212.67 581.12 C 208.58 602.37 201.84 622.97 194.93 643.43 C 208.62 634.88 221.68 625.38 234.52 615.61 C 247.98 605.11 261.38 594.47 273.67 582.60 C 277.64 578.24 282.39 574.74 286.86 570.93 C 296.68 562.80 306.45 554.59 316.29 546.49 C 327.84 546.61 339.50 547.89 351.08 548.66 C 361.33 550.00 371.63 551.01 381.96 551.48 C 429.69 553.24 477.93 549.62 524.11 536.89 C 565.06 525.80 604.42 507.87 638.43 482.35 C 665.58 461.90 689.17 436.43 706.02 406.83 C 725.93 372.15 735.94 331.91 734.65 291.95 C 733.75 268.20 727.83 244.72 717.75 223.22 C 704.25 194.34 683.70 169.13 659.67 148.35 C 631.37 123.84 598.34 105.15 563.57 91.48 C 507.86 69.78 447.67 60.51 388.02 61.97 C 353.49 62.78 319.03 67.25 285.52 75.66 Z" />
<path fill="#000000" opacity="1.00" d=" M 225.55 247.73 C 242.84 245.45 261.12 249.39 275.36 259.64 C 295.88 274.02 306.73 300.89 301.67 325.47 C 298.15 343.69 286.71 360.33 270.59 369.64 C 244.31 385.22 207.53 381.38 186.07 359.24 C 174.28 347.32 167.38 330.76 167.09 314.00 C 166.88 296.68 173.76 279.32 186.01 267.03 C 196.47 256.34 210.70 249.45 225.55 247.73 Z" />
<path fill="#000000" opacity="1.00" d=" M 406.53 247.73 C 422.54 245.84 439.12 250.32 452.21 259.68 C 472.80 274.12 483.62 301.17 478.40 325.81 C 475.26 341.45 466.38 355.96 453.56 365.51 C 442.00 374.25 427.51 379.05 413.02 378.90 C 397.03 378.61 381.20 372.33 369.42 361.50 C 356.72 349.93 348.99 333.17 348.16 316.03 C 347.38 298.74 353.70 281.17 365.55 268.53 C 376.17 257.02 390.98 249.53 406.53 247.73 Z" />
<path fill="#000000" opacity="1.00" d=" M 576.47 248.69 C 601.72 243.13 629.60 254.46 643.92 275.96 C 651.30 286.81 655.47 299.87 655.48 313.01 C 655.51 330.64 648.06 348.13 635.40 360.39 C 625.23 370.16 611.88 376.55 597.89 378.35 C 580.44 380.69 562.24 375.30 548.53 364.34 C 535.72 354.19 527.15 339.01 524.66 322.90 C 522.48 309.17 525.04 294.82 531.48 282.53 C 540.39 265.24 557.46 252.59 576.47 248.69 Z" />
<path fill="#000000" opacity="1.00" d=" M 866.02 351.72 C 867.93 352.46 869.85 353.25 871.59 354.39 C 877.10 358.22 883.15 361.25 888.37 365.53 C 918.28 386.02 944.18 413.32 959.68 446.37 C 962.70 452.19 965.53 458.18 967.19 464.55 C 968.15 469.15 970.27 473.45 970.74 478.17 C 972.60 481.25 972.80 484.97 974.05 488.30 L 974.07 488.38 C 974.08 493.81 976.45 498.82 976.98 504.19 L 976.97 504.85 C 976.57 506.88 977.02 508.95 977.96 510.78 C 980.08 514.14 977.83 518.45 980.00 521.74 L 980.00 553.79 C 979.64 558.96 979.39 564.13 979.00 569.30 L 978.94 569.90 C 978.56 573.13 978.19 576.36 977.94 579.61 L 977.86 580.06 C 977.00 581.99 976.36 584.16 977.18 586.25 L 976.93 586.83 C 976.12 588.10 975.62 589.61 975.97 591.13 L 975.98 591.73 C 975.26 595.00 974.43 598.25 973.98 601.57 L 973.87 601.89 C 972.97 602.84 972.71 603.93 973.08 605.16 L 973.04 605.57 C 972.70 606.14 972.01 607.28 971.67 607.85 C 971.37 610.20 971.10 612.63 969.82 614.69 C 969.68 615.19 969.39 616.18 969.25 616.67 C 968.85 617.68 968.48 618.70 968.15 619.74 C 967.29 622.24 966.77 624.84 966.22 627.43 C 965.43 630.90 964.05 634.19 962.34 637.31 C 958.06 648.31 951.88 658.45 945.23 668.17 C 940.02 676.45 933.48 683.76 927.27 691.28 C 920.38 697.71 914.33 705.07 906.80 710.78 C 888.64 726.43 868.28 739.43 847.02 750.41 C 846.97 753.74 846.96 757.09 847.05 760.44 C 847.04 763.73 847.48 767.00 847.96 770.26 L 847.95 770.87 C 847.60 772.93 847.95 775.04 848.91 776.92 L 849.05 777.32 C 848.81 785.00 851.86 792.16 852.66 799.70 C 853.48 802.24 854.33 804.79 855.00 807.39 L 855.00 807.86 C 854.71 809.09 855.03 810.16 855.97 811.08 L 856.08 811.39 C 856.64 814.33 857.29 817.26 857.68 820.24 C 858.01 820.75 858.67 821.75 859.00 822.25 L 859.07 822.60 C 859.30 824.50 859.50 826.45 860.07 828.31 C 861.04 830.70 862.04 833.08 863.04 835.47 L 863.09 835.80 C 862.56 837.76 863.30 839.93 865.00 841.10 L 865.06 841.77 C 865.30 842.33 865.77 843.45 866.00 844.00 C 868.46 848.81 869.74 854.10 872.00 859.01 C 874.21 865.79 878.57 871.65 880.69 878.45 C 881.30 883.55 881.77 889.22 878.72 893.70 C 875.96 899.42 870.15 902.65 864.17 904.00 L 854.68 904.00 C 850.66 902.39 846.22 902.12 842.10 900.79 C 831.79 897.62 821.58 893.95 811.99 888.99 C 782.38 874.89 755.78 855.34 730.60 834.49 C 727.19 832.23 724.82 828.76 721.38 826.54 C 718.11 824.22 715.87 820.76 712.60 818.45 C 708.33 815.46 705.07 811.33 701.29 807.79 C 697.72 803.91 693.28 800.72 690.75 796.00 C 688.34 795.95 685.94 795.93 683.55 796.10 C 680.31 796.24 677.10 796.59 673.89 796.96 L 673.55 796.99 C 653.20 798.03 632.80 797.49 612.44 797.06 C 611.86 797.03 610.69 796.97 610.11 796.94 C 605.56 796.57 601.00 796.27 596.44 796.09 C 595.94 796.05 594.93 795.96 594.43 795.91 C 591.44 795.53 588.45 795.25 585.45 795.03 L 585.04 794.98 C 582.18 794.57 579.31 794.24 576.44 794.10 C 576.06 794.04 575.32 793.90 574.95 793.84 C 573.03 793.00 570.94 792.50 568.87 793.01 L 568.26 793.00 C 564.06 791.86 559.80 790.97 555.42 791.02 L 555.11 790.89 C 553.83 790.01 552.22 789.52 550.73 790.12 L 550.07 789.94 C 548.80 789.06 547.22 788.50 545.73 789.10 L 545.07 788.95 C 543.80 788.07 542.23 787.51 540.73 788.08 L 540.07 787.92 C 538.81 787.18 537.33 786.47 535.85 786.96 L 535.10 787.08 C 534.20 785.99 533.08 785.65 531.76 786.06 L 531.11 786.00 C 530.17 784.96 529.04 784.65 527.74 785.09 L 527.08 785.01 C 526.16 784.05 525.09 783.74 523.85 784.07 L 523.26 784.02 C 522.75 783.68 521.73 783.02 521.22 782.68 C 518.30 782.31 515.43 781.64 512.52 781.20 C 509.01 780.83 505.78 779.36 502.45 778.31 C 456.70 763.93 413.62 740.24 378.24 707.77 C 371.11 700.57 363.93 693.41 356.73 686.28 C 355.54 685.20 355.10 683.61 354.21 682.34 C 352.85 680.22 351.14 678.36 349.58 676.41 C 354.91 676.39 360.22 676.86 365.55 676.93 C 385.51 677.06 405.48 677.03 425.44 676.94 C 431.03 676.79 436.62 676.49 442.20 676.05 C 442.51 676.03 443.13 675.99 443.44 675.97 C 447.68 675.80 451.91 675.48 456.13 675.03 L 456.46 675.01 C 459.47 674.84 462.48 674.54 465.46 674.09 C 465.71 674.06 466.20 674.01 466.44 673.99 C 469.70 673.83 472.94 673.43 476.18 673.04 L 476.85 673.04 C 479.22 673.52 481.56 672.85 483.79 672.06 L 484.75 671.85 C 487.12 672.70 489.56 671.91 491.81 671.06 L 492.75 670.87 C 494.58 671.52 496.50 670.99 498.11 670.02 C 498.55 670.03 499.41 670.05 499.85 670.06 C 501.64 670.40 503.41 669.86 505.01 669.07 L 505.76 668.87 C 507.55 669.53 509.42 668.98 511.03 668.09 L 511.75 667.86 C 513.53 668.52 515.42 668.05 516.99 667.07 L 517.33 666.93 C 521.07 667.02 524.71 666.23 528.25 665.04 L 528.85 665.04 C 530.32 665.38 531.79 664.89 532.99 664.04 L 533.36 663.93 C 538.21 664.05 542.65 661.99 547.31 661.02 L 547.84 661.02 C 549.06 661.27 550.14 660.95 551.07 660.06 L 551.46 660.00 C 554.24 659.93 557.07 659.60 559.46 658.06 L 559.87 658.04 C 561.12 658.27 562.20 657.93 563.11 657.01 L 563.77 656.90 C 565.05 657.31 566.16 657.02 567.12 656.03 L 567.39 655.92 C 570.33 655.35 573.26 654.78 576.21 654.25 C 578.26 652.78 580.81 652.72 583.20 652.26 C 585.72 650.71 588.70 650.22 591.33 648.87 C 596.40 646.99 601.51 645.12 606.76 643.80 C 607.33 643.62 608.47 643.24 609.03 643.05 L 609.50 642.86 C 612.15 642.21 614.95 641.86 617.38 640.50 C 617.92 640.54 618.99 640.62 619.53 640.66 L 619.16 639.58 C 621.32 638.80 623.46 637.96 625.58 637.05 L 625.89 637.02 C 627.56 637.05 629.28 636.43 630.21 634.97 C 637.24 631.13 645.04 628.92 652.01 624.96 C 658.84 622.00 665.74 619.11 672.02 615.06 C 686.73 607.59 700.74 598.77 714.36 589.49 C 728.89 579.94 742.04 568.47 755.28 557.27 C 763.55 548.86 771.98 540.60 780.26 532.21 C 782.69 528.67 785.93 525.83 788.47 522.39 C 803.96 504.41 817.39 484.69 829.00 464.01 C 835.26 453.53 840.06 442.27 845.82 431.52 C 847.25 429.41 848.33 427.07 848.79 424.55 C 850.15 419.88 852.46 415.55 853.88 410.90 C 855.45 406.76 856.24 402.38 857.75 398.22 C 858.14 397.74 858.92 396.78 859.31 396.31 C 860.03 393.01 860.86 389.74 860.97 386.35 L 861.06 386.07 C 861.81 384.82 862.46 383.34 862.07 381.86 L 862.00 381.17 C 862.83 379.92 863.43 378.40 863.06 376.88 L 862.98 376.12 C 863.83 374.88 864.40 373.37 864.10 371.85 L 864.03 370.92 C 864.92 369.02 865.46 366.93 865.08 364.83 L 865.03 364.00 C 866.02 362.12 866.43 359.99 865.99 357.89 C 865.93 355.83 865.97 353.77 866.02 351.72 Z" />
</g>
</svg>
